<?xml version="1.0" encoding="iso-8859-1"?>
<!-- Generator: Adobe Illustrator 19.0.0, SVG Export Plug-In . SVG Version: 6.00 Build 0)  -->
<svg version="1.1" id="Layer_1" xmlns="http://www.w3.org/2000/svg" xmlns:xlink="http://www.w3.org/1999/xlink" x="0px" y="0px"
	 viewBox="0 0 406.963 406.963" style="enable-background:new 0 0 406.963 406.963;" xml:space="preserve">
<g>
	<path style="fill:#6D2C93;" d="M276.371,58.239C237.965,47.493,219.504,40.529,219.504,0h-40v264.407
		c-13.689-7.868-30.001-12.444-47.5-12.444v155c48.248,0,87.5-34.766,87.5-77.5V219.185c14.808,8.823,31.526,13.501,46.088,17.576
		c38.406,10.746,56.867,17.71,56.867,58.239h40V155C362.459,82.328,312.702,68.405,276.371,58.239z M265.592,96.761
		c35.213,9.853,53.648,16.546,56.471,48.826c-14.71-8.672-31.26-13.308-45.693-17.346c-35.213-9.854-53.647-16.547-56.47-48.828
		C234.609,88.085,251.159,92.722,265.592,96.761z M276.371,198.239c-35.213-9.853-53.648-16.546-56.471-48.826
		c14.71,8.672,31.26,13.308,45.693,17.346c35.213,9.854,53.647,16.547,56.47,48.828
		C307.354,206.915,290.804,202.278,276.371,198.239z"/>
	<path style="fill:#933EC5;" d="M44.504,329.463c0,42.734,39.252,77.5,87.5,77.5v-155C83.756,251.963,44.504,286.729,44.504,329.463
		z"/>
</g>
<g>
</g>
<g>
</g>
<g>
</g>
<g>
</g>
<g>
</g>
<g>
</g>
<g>
</g>
<g>
</g>
<g>
</g>
<g>
</g>
<g>
</g>
<g>
</g>
<g>
</g>
<g>
</g>
<g>
</g>
</svg>
