<?xml version="1.0" encoding="iso-8859-1"?>
<!-- Generator: Adobe Illustrator 19.0.0, SVG Export Plug-In . SVG Version: 6.00 Build 0)  -->
<svg version="1.1" id="Layer_1" xmlns="http://www.w3.org/2000/svg" xmlns:xlink="http://www.w3.org/1999/xlink" x="0px" y="0px"
	 viewBox="0 0 495 495" style="enable-background:new 0 0 495 495;" xml:space="preserve">
<g>
	<polygon style="fill:#6D2C93;" points="145,371.44 145,316.44 247.5,316.44 247.5,286.44 153.42,286.44 247.5,123.56 247.5,0 0,0 
		0,495 247.5,495 247.5,371.44 	"/>
	<polygon style="fill:#3D1952;" points="247.5,0 247.5,123.56 341.58,286.44 247.5,286.44 247.5,316.44 350,316.44 350,371.44 
		247.5,371.44 247.5,495 495,495 495,0 	"/>
	<rect x="247.5" y="316.44" style="fill:#9CDD05;" width="102.5" height="55"/>
	<polygon style="fill:#9CDD05;" points="341.58,286.44 247.5,123.56 247.5,286.44 	"/>
	<rect x="145" y="316.44" style="fill:#B2FA09;" width="102.5" height="55"/>
	<polygon style="fill:#B2FA09;" points="247.5,286.44 247.5,123.56 153.42,286.44 	"/>
</g>
<g>
</g>
<g>
</g>
<g>
</g>
<g>
</g>
<g>
</g>
<g>
</g>
<g>
</g>
<g>
</g>
<g>
</g>
<g>
</g>
<g>
</g>
<g>
</g>
<g>
</g>
<g>
</g>
<g>
</g>
</svg>
