<?xml version="1.0" encoding="iso-8859-1"?>
<!-- Generator: Adobe Illustrator 19.0.0, SVG Export Plug-In . SVG Version: 6.00 Build 0)  -->
<svg version="1.1" id="Layer_1" xmlns="http://www.w3.org/2000/svg" xmlns:xlink="http://www.w3.org/1999/xlink" x="0px" y="0px"
	 viewBox="0 0 479.48 479.48" style="enable-background:new 0 0 479.48 479.48;" xml:space="preserve">
<g>
	<path style="fill:#933EC5;" d="M80.763,401.98c0,42.734,39.252,77.5,87.5,77.5v-155C120.015,324.48,80.763,359.247,80.763,401.98z"
		/>
	<path style="fill:#6D2C93;" d="M312.629,58.239C274.224,47.493,255.763,40.529,255.763,0h-40v336.924
		c-13.689-7.868-30.001-12.444-47.5-12.444v155c48.248,0,87.5-34.766,87.5-77.5V291.703c14.808,8.823,31.526,13.501,46.088,17.576
		c38.406,10.746,56.867,17.71,56.867,58.239h40V155C398.718,82.328,348.96,68.405,312.629,58.239z M301.851,96.76
		c35.213,9.854,53.647,16.547,56.471,48.827c-14.71-8.672-31.259-13.308-45.693-17.346c-35.214-9.854-53.648-16.547-56.471-48.828
		C270.868,88.085,287.418,92.722,301.851,96.76z M358.322,215.586c-14.71-8.672-31.259-13.308-45.693-17.346
		c-35.213-9.854-53.647-16.547-56.471-48.827c14.71,8.672,31.259,13.308,45.693,17.346
		C337.064,176.613,355.498,183.307,358.322,215.586z M312.629,270.759c-36.155-10.117-54.629-16.892-56.67-51.463
		c14.759,8.748,31.394,13.408,45.892,17.464c36.154,10.117,54.628,16.892,56.67,51.461
		C343.762,279.473,327.128,274.815,312.629,270.759z"/>
</g>
<g>
</g>
<g>
</g>
<g>
</g>
<g>
</g>
<g>
</g>
<g>
</g>
<g>
</g>
<g>
</g>
<g>
</g>
<g>
</g>
<g>
</g>
<g>
</g>
<g>
</g>
<g>
</g>
<g>
</g>
</svg>
