<?xml version="1.0" encoding="iso-8859-1"?>
<!-- Generator: Adobe Illustrator 19.0.0, SVG Export Plug-In . SVG Version: 6.00 Build 0)  -->
<svg version="1.1" id="Layer_1" xmlns="http://www.w3.org/2000/svg" xmlns:xlink="http://www.w3.org/1999/xlink" x="0px" y="0px"
	 viewBox="0 0 495 495" style="enable-background:new 0 0 495 495;" xml:space="preserve">
<g>
	<polygon style="fill:#6D2C93;" points="173.2,271.02 173.2,350 118.2,350 118.2,145 173.2,145 173.2,223.98 247.5,181.064 247.5,0 
		0,0 0,495 247.5,495 247.5,313.936 	"/>
	<polygon style="fill:#3D1952;" points="247.5,0 247.5,181.064 295.36,153.42 295.36,200.46 376.8,153.42 376.8,341.58 
		295.36,294.54 295.36,341.58 247.5,313.936 247.5,495 495,495 495,0 	"/>
	<polygon style="fill:#9CDD05;" points="118.2,247.5 118.2,350 173.2,350 173.2,271.02 247.5,313.936 295.36,341.58 295.36,294.54 
		376.8,341.58 376.8,247.5 	"/>
	<polygon style="fill:#B2FA09;" points="173.2,145 118.2,145 118.2,247.5 376.8,247.5 376.8,153.42 295.36,200.46 295.36,153.42 
		247.5,181.064 173.2,223.98 	"/>
</g>
<g>
</g>
<g>
</g>
<g>
</g>
<g>
</g>
<g>
</g>
<g>
</g>
<g>
</g>
<g>
</g>
<g>
</g>
<g>
</g>
<g>
</g>
<g>
</g>
<g>
</g>
<g>
</g>
<g>
</g>
</svg>
