<?xml version="1.0" encoding="iso-8859-1"?>
<!-- Generator: Adobe Illustrator 19.0.0, SVG Export Plug-In . SVG Version: 6.00 Build 0)  -->
<svg version="1.1" id="Layer_1" xmlns="http://www.w3.org/2000/svg" xmlns:xlink="http://www.w3.org/1999/xlink" x="0px" y="0px"
	 viewBox="0 0 495 495" style="enable-background:new 0 0 495 495;" xml:space="preserve">
<g>
	<polygon style="fill:#6D2C93;" points="125.34,247.5 247.5,176.94 247.5,0 0,0 0,495 247.5,495 247.5,318.06 	"/>
	<polygon style="fill:#3D1952;" points="247.5,0 247.5,176.94 288.22,153.42 288.22,200.46 369.66,153.42 369.66,341.58 
		288.22,294.54 288.22,341.58 247.5,318.06 247.5,495 495,495 495,0 	"/>
	<polygon style="fill:#9CDD05;" points="125.34,247.5 247.5,318.06 288.22,341.58 288.22,294.54 369.66,341.58 369.66,247.5 	"/>
	<polygon style="fill:#B2FA09;" points="369.66,247.5 369.66,153.42 288.22,200.46 288.22,153.42 247.5,176.94 125.34,247.5 	"/>
</g>
<g>
</g>
<g>
</g>
<g>
</g>
<g>
</g>
<g>
</g>
<g>
</g>
<g>
</g>
<g>
</g>
<g>
</g>
<g>
</g>
<g>
</g>
<g>
</g>
<g>
</g>
<g>
</g>
<g>
</g>
</svg>
