<?xml version="1.0" encoding="iso-8859-1"?>
<!-- Generator: Adobe Illustrator 19.0.0, SVG Export Plug-In . SVG Version: 6.00 Build 0)  -->
<svg version="1.1" id="Layer_1" xmlns="http://www.w3.org/2000/svg" xmlns:xlink="http://www.w3.org/1999/xlink" x="0px" y="0px"
	 viewBox="0 0 406.963 406.963" style="enable-background:new 0 0 406.963 406.963;" xml:space="preserve">
<g>
	<path style="fill:#933EC5;" d="M44.504,329.463c0,42.734,39.252,77.5,87.5,77.5v-155C83.756,251.963,44.504,286.729,44.504,329.463
		z"/>
	<path style="fill:#6D2C93;" d="M276.371,58.239C237.965,47.493,219.504,40.529,219.504,0h-40v264.407
		c-13.689-7.868-30.001-12.444-47.5-12.444v155c48.248,0,87.5-34.766,87.5-77.5V149.185c14.808,8.823,31.526,13.501,46.088,17.576
		c38.406,10.746,56.867,17.71,56.867,58.239h40v-70C362.459,82.328,312.702,68.405,276.371,58.239z M276.371,128.239
		c-35.221-9.854-53.668-16.531-56.485-48.828c14.713,8.678,31.269,13.31,45.706,17.35c35.221,9.854,53.668,16.531,56.485,48.828
		C307.364,136.911,290.809,132.279,276.371,128.239z"/>
</g>
<g>
</g>
<g>
</g>
<g>
</g>
<g>
</g>
<g>
</g>
<g>
</g>
<g>
</g>
<g>
</g>
<g>
</g>
<g>
</g>
<g>
</g>
<g>
</g>
<g>
</g>
<g>
</g>
<g>
</g>
</svg>
