<?xml version="1.0" encoding="iso-8859-1"?>
<!-- Generator: Adobe Illustrator 19.0.0, SVG Export Plug-In . SVG Version: 6.00 Build 0)  -->
<svg version="1.1" id="Layer_1" xmlns="http://www.w3.org/2000/svg" xmlns:xlink="http://www.w3.org/1999/xlink" x="0px" y="0px"
	 viewBox="0 0 495 495" style="enable-background:new 0 0 495 495;" xml:space="preserve">
<g>
	<path style="fill:#6D2C93;" d="M145,247.5c0-56.61,45.89-102.5,102.5-102.5V0H0v495h247.5V350C190.89,350,145,304.11,145,247.5z"/>
	<path style="fill:#3D1952;" d="M247.5,0v145c56.61,0,102.5,45.89,102.5,102.5S304.11,350,247.5,350v145H495V0H247.5z"/>
	<path style="fill:#9CDD05;" d="M350,247.5c0-56.61-45.89-102.5-102.5-102.5v205C304.11,350,350,304.11,350,247.5z"/>
	<path style="fill:#B2FA09;" d="M145,247.5c0,56.61,45.89,102.5,102.5,102.5V145C190.89,145,145,190.89,145,247.5z"/>
</g>
<g>
</g>
<g>
</g>
<g>
</g>
<g>
</g>
<g>
</g>
<g>
</g>
<g>
</g>
<g>
</g>
<g>
</g>
<g>
</g>
<g>
</g>
<g>
</g>
<g>
</g>
<g>
</g>
<g>
</g>
</svg>
